<svg version="1.1" xmlns="http://www.w3.org/2000/svg" xmlns:xlink="http://www.w3.org/1999/xlink" width="163.08086" height="34" viewBox="0,0,163.08086,34"><g transform="translate(-398.45964,-253.00002)"><g stroke-miterlimit="10"><path d="M430.17686,285.00003v-30h129.36364v30z" fill="#000000" stroke="#000000" stroke-width="4"/><path d="M400.45964,285.00003v-30h30v30z" fill="#000000" stroke="#000000" stroke-width="4"/><path d="M430.17687,285.00003v-30h129.36364v30z" fill="#f0e462" stroke="none" stroke-width="0"/><path d="M400.45964,285.00003v-30h30v30z" fill="#fff8a8" stroke="none" stroke-width="0"/><path d="M416.23832,273.70933h-1.55737v-11.67972h1.55737z" fill="#ffffff" stroke="none" stroke-width="0"/><text transform="translate(454.85868,275.76876) scale(0.5,0.5)" font-size="40" xml:space="preserve" fill="#ffffff" stroke="none" stroke-width="1" font-family="&quot;AaFly&quot;, Sans Serif" font-weight="normal" text-anchor="start"><tspan x="0" dy="0">特殊登录</tspan></text><path d="M414.5593,277.0701c0,-0.49725 0.4031,-0.90034 0.90034,-0.90034c0.49725,0 0.90033,0.40309 0.90033,0.90034c0,0.49725 -0.40309,0.90034 -0.90033,0.90034c-0.49725,0 -0.90034,-0.40309 -0.90034,-0.90034z" fill="#ffffff" stroke="#000000" stroke-width="0"/></g></g></svg>